<svg width="1200" height="1200" viewBox="0 0 1200 1200" xmlns="http://www.w3.org/2000/svg">
  
  <!-- Field (Center Round Green)-->
  <!-- 
  <circle cx="600" cy="580" r="300" fill="#A2C948"/>
  <circle cx="600" cy="600" r="20" fill="white"/>
  <path d="M600,600 L600,900 L700,900 Z" fill="white"/> -->

  <g transform="translate(0,-35) scale(1.5)">
    <path d="M400,200 L600,400 L400,600 L200,400 Z" fill="green" stroke="black" stroke-width="2" />
    <path d="M200,400 A200,200 0 0,1 600,400" fill="green" stroke="black" stroke-width="2" />

    <line x1="400" y1="400" x2="500" y2="500" stroke="black" stroke-width="2" />
    <line x1="300" y1="500" x2="400" y2="400" stroke="black" stroke-width="2" />
    
    <circle cx="400" cy="400" r="10" fill="white" stroke="black" stroke-width="2" />
    <circle cx="500" cy="500" r="10" fill="white" stroke="black" stroke-width="2" />
    <circle cx="400" cy="600" r="10" fill="white" stroke="black" stroke-width="2" />  
    <circle cx="300" cy="500" r="10" fill="white" stroke="black" stroke-width="2" />
  </g>

  <!-- 101-129 (Orange)-->
  <g id="101-129" fill="#FF7b00" opacity="0.9">
    <g transform="translate(600,600)">
      <g transform="rotate(70)">
        <rect x="-20" y="400" width="40" height="40" rx="8" ry="8"/>
        <text x="0" y="425" font-family="Arial" font-size="15" font-weight="bold" fill="black" text-anchor="middle">101</text>
      </g>
      <g transform="rotate(60)">
        <rect x="-20" y="400" width="40" height="40" rx="8" ry="8"/>
        <text x="0" y="425" font-family="Arial" font-size="15" font-weight="bold" fill="black" text-anchor="middle">103</text>
      </g>
      <g transform="rotate(50)">
        <rect x="-20" y="400" width="40" height="40" rx="8" ry="8"/>
        <text x="0" y="425" font-family="Arial" font-size="15" font-weight="bold" fill="black" text-anchor="middle">105</text>
      </g>
      <g transform="rotate(40)">
        <rect x="-20" y="400" width="40" height="40" rx="8" ry="8"/>
        <text x="0" y="425" font-family="Arial" font-size="15" font-weight="bold" fill="black" text-anchor="middle">107</text>
      </g>
      <g transform="rotate(30)">
        <rect x="-20" y="400" width="40" height="40" rx="8" ry="8"/>
        <text x="0" y="425" font-family="Arial" font-size="15" font-weight="bold" fill="black" text-anchor="middle">109</text>
      </g>
      <g transform="rotate(20)">
        <rect x="-20" y="400" width="40" height="40" rx="8" ry="8"/>
        <text x="0" y="425" font-family="Arial" font-size="15" font-weight="bold" fill="black" text-anchor="middle">111</text>
      </g>
      <g transform="rotate(10)">
        <rect x="-20" y="400" width="40" height="40" rx="8" ry="8"/>
        <text x="0" y="425" font-family="Arial" font-size="15" font-weight="bold" fill="black" text-anchor="middle">113</text>
      </g>
      <g transform="rotate(0)">
        <rect x="-20" y="400" width="40" height="40" rx="8" ry="8"/>
        <text x="0" y="425" font-family="Arial" font-size="15" font-weight="bold" fill="black" text-anchor="middle">115</text>
      </g>
      <g transform="rotate(-10)">
        <rect x="-20" y="400" width="40" height="40" rx="8" ry="8"/>
        <text x="0" y="425" font-family="Arial" font-size="15" font-weight="bold" fill="black" text-anchor="middle">117</text>
      </g>
      <g transform="rotate(-20)">
        <rect x="-20" y="400" width="40" height="40" rx="8" ry="8"/>
        <text x="0" y="425" font-family="Arial" font-size="15" font-weight="bold" fill="black" text-anchor="middle">119</text>
      </g>
      <g transform="rotate(-30)">
        <rect x="-20" y="400" width="40" height="40" rx="8" ry="8"/>
        <text x="0" y="425" font-family="Arial" font-size="15" font-weight="bold" fill="black" text-anchor="middle">121</text>
      </g>
      <g transform="rotate(-40)">
        <rect x="-20" y="400" width="40" height="40" rx="8" ry="8"/>
        <text x="0" y="425" font-family="Arial" font-size="15" font-weight="bold" fill="black" text-anchor="middle">123</text>
      </g>
      <g transform="rotate(-50)">
        <rect x="-20" y="400" width="40" height="40" rx="8" ry="8"/>
        <text x="0" y="425" font-family="Arial" font-size="15" font-weight="bold" fill="black" text-anchor="middle">125</text>
      </g>
      <g transform="rotate(-60)">
        <rect x="-20" y="400" width="40" height="40" rx="8" ry="8"/>
        <text x="0" y="425" font-family="Arial" font-size="15" font-weight="bold" fill="black" text-anchor="middle">127</text>
      </g>
      <g transform="rotate(-70)">
        <rect x="-20" y="400" width="40" height="40" rx="8" ry="8"/>
        <text x="0" y="425" font-family="Arial" font-size="15" font-weight="bold" fill="black" text-anchor="middle">129</text>
      </g>
    </g>
  </g>

  <!-- 202-232 (Green)-->
  <g id="202-232" fill="#008000" opacity="0.9">
    <text x="600" y="130" font-family="Arial" font-size="20" fill="black" text-anchor="middle">전광판</text>
    <g transform="translate(600,600)">
      <g transform="rotate(-75)">
        <rect x="-20" y="-390" width="40" height="40" rx="8" ry="8"/>
        <text x="0" y="-365" font-family="Arial" font-size="15" font-weight="bold" fill="black" text-anchor="middle">202</text>
      </g>
      <g transform="rotate(-65)">
        <rect x="-20" y="-390" width="40" height="40" rx="8" ry="8"/>
        <text x="0" y="-365" font-family="Arial" font-size="15" font-weight="bold" fill="black" text-anchor="middle">204</text>
      </g>
      <g transform="rotate(-55)">
        <rect x="-20" y="-390" width="40" height="40" rx="8" ry="8"/>
        <text x="0" y="-365" font-family="Arial" font-size="15" font-weight="bold" fill="black" text-anchor="middle">206</text>
      </g>
      <g transform="rotate(-45)">
        <rect x="-20" y="-390" width="40" height="40" rx="8" ry="8"/>
        <text x="0" y="-365" font-family="Arial" font-size="15" font-weight="bold" fill="black" text-anchor="middle">208</text>
      </g>
      <g transform="rotate(-35)">
        <rect x="-20" y="-390" width="40" height="40" rx="8" ry="8"/>
        <text x="0" y="-365" font-family="Arial" font-size="15" font-weight="bold" fill="black" text-anchor="middle">210</text>
      </g>
      <g transform="rotate(-25)">
        <rect x="-20" y="-390" width="40" height="40" rx="8" ry="8"/>
        <text x="0" y="-365" font-family="Arial" font-size="15" font-weight="bold" fill="black" text-anchor="middle">212</text>
      </g>
      <g transform="rotate(-15)">
        <rect x="-20" y="-390" width="40" height="40" rx="8" ry="8"/>
        <text x="0" y="-365" font-family="Arial" font-size="15" font-weight="bold" fill="black" text-anchor="middle">214</text>
      </g>
      <g transform="rotate(-5)">
        <rect x="-20" y="-390" width="40" height="40" rx="8" ry="8"/>
        <text x="0" y="-365" font-family="Arial" font-size="15" font-weight="bold" fill="black" text-anchor="middle">216</text>
      </g>
      <g transform="rotate(5)">
        <rect x="-20" y="-390" width="40" height="40" rx="8" ry="8"/>
        <text x="0" y="-365" font-family="Arial" font-size="15" font-weight="bold" fill="black" text-anchor="middle">218</text>
      </g>
      <g transform="rotate(15)">
        <rect x="-20" y="-390" width="40" height="40" rx="8" ry="8"/>
        <text x="0" y="-365" font-family="Arial" font-size="15" font-weight="bold" fill="black" text-anchor="middle">220</text>
      </g>
      <g transform="rotate(25)">
        <rect x="-20" y="-390" width="40" height="40" rx="8" ry="8"/>
        <text x="0" y="-365" font-family="Arial" font-size="15" font-weight="bold" fill="black" text-anchor="middle">222</text>
      </g>
      <g transform="rotate(35)">
        <rect x="-20" y="-390" width="40" height="40" rx="8" ry="8"/>
        <text x="0" y="-365" font-family="Arial" font-size="15" font-weight="bold" fill="black" text-anchor="middle">224</text>
      </g>
      <g transform="rotate(45)">
        <rect x="-20" y="-390" width="40" height="40" rx="8" ry="8"/>
        <text x="0" y="-365" font-family="Arial" font-size="15" font-weight="bold" fill="black" text-anchor="middle">226</text>
      </g>
      <g transform="rotate(55)">
        <rect x="-20" y="-390" width="40" height="40" rx="8" ry="8"/>
        <text x="0" y="-365" font-family="Arial" font-size="15" font-weight="bold" fill="black" text-anchor="middle">228</text>
      </g>
      <g transform="rotate(65)">
        <rect x="-20" y="-390" width="40" height="40" rx="8" ry="8"/>
        <text x="0" y="-365" font-family="Arial" font-size="15" font-weight="bold" fill="black" text-anchor="middle">230</text>
      </g>
      <g transform="rotate(75)">
        <rect x="-20" y="-390" width="40" height="40" rx="8" ry="8"/>
        <text x="0" y="-365" font-family="Arial" font-size="15" font-weight="bold" fill="black" text-anchor="middle">232</text>
      </g>
    </g>
  </g>

  <!-- 301-337 (Blue)-->
  <g id="301-337" fill="#0000FF" opacity="0.9">
    <g transform="translate(600,600)">
      <g transform="rotate(90)">
        <rect x="-20" y="350" width="40" height="40" rx="8" ry="8"/>
        <text x="0" y="375" font-family="Arial" font-size="15" font-weight="bold" fill="black" text-anchor="middle">301</text>
      </g>
      <g transform="rotate(80)">
        <rect x="-20" y="350" width="40" height="40" rx="8" ry="8"/>
        <text x="0" y="375" font-family="Arial" font-size="15" font-weight="bold" fill="black" text-anchor="middle">303</text>
      </g>
      <g transform="rotate(70)">
        <rect x="-20" y="350" width="40" height="40" rx="8" ry="8"/>
        <text x="0" y="375" font-family="Arial" font-size="15" font-weight="bold" fill="black" text-anchor="middle">305</text>
      </g>
      <g transform="rotate(60)">
        <rect x="-20" y="350" width="40" height="40" rx="8" ry="8"/>
        <text x="0" y="375" font-family="Arial" font-size="15" font-weight="bold" fill="black" text-anchor="middle">307</text>
      </g>
      <g transform="rotate(50)">
        <rect x="-20" y="350" width="40" height="40" rx="8" ry="8"/>
        <text x="0" y="375" font-family="Arial" font-size="15" font-weight="bold" fill="black" text-anchor="middle">309</text>
      </g>
      <g transform="rotate(40)">
        <rect x="-20" y="350" width="40" height="40" rx="8" ry="8"/>
        <text x="0" y="375" font-family="Arial" font-size="15" font-weight="bold" fill="black" text-anchor="middle">311</text>
      </g>
      <g transform="rotate(30)">
        <rect x="-20" y="350" width="40" height="40" rx="8" ry="8"/>
        <text x="0" y="375" font-family="Arial" font-size="15" font-weight="bold" fill="black" text-anchor="middle">313</text>
      </g>
      <g transform="rotate(20)">
        <rect x="-20" y="350" width="40" height="40" rx="8" ry="8"/>
        <text x="0" y="375" font-family="Arial" font-size="15" font-weight="bold" fill="black" text-anchor="middle">315</text>
      </g>
      <g transform="rotate(10)">
        <rect x="-20" y="350" width="40" height="40" rx="8" ry="8"/>
        <text x="0" y="375" font-family="Arial" font-size="15" font-weight="bold" fill="black" text-anchor="middle">317</text>
      </g>
      <g transform="rotate(0)">
        <rect x="-20" y="350" width="40" height="40" rx="8" ry="8"/>
        <text x="0" y="375" font-family="Arial" font-size="15" font-weight="bold" fill="black" text-anchor="middle">319</text>
      </g>
      <g transform="rotate(-10)">
        <rect x="-20" y="350" width="40" height="40" rx="8" ry="8"/>
        <text x="0" y="375" font-family="Arial" font-size="15" font-weight="bold" fill="black" text-anchor="middle">321</text>
      </g>
      <g transform="rotate(-20)">
        <rect x="-20" y="350" width="40" height="40" rx="8" ry="8"/>
        <text x="0" y="375" font-family="Arial" font-size="15" font-weight="bold" fill="black" text-anchor="middle">323</text>
      </g>
      <g transform="rotate(-30)">
        <rect x="-20" y="350" width="40" height="40" rx="8" ry="8"/>
        <text x="0" y="375" font-family="Arial" font-size="15" font-weight="bold" fill="black" text-anchor="middle">325</text>
      </g>
      <g transform="rotate(-40)">
        <rect x="-20" y="350" width="40" height="40" rx="8" ry="8"/>
        <text x="0" y="375" font-family="Arial" font-size="15" font-weight="bold" fill="black" text-anchor="middle">327</text>
      </g>
      <g transform="rotate(-50)">
        <rect x="-20" y="350" width="40" height="40" rx="8" ry="8"/>
        <text x="0" y="375" font-family="Arial" font-size="15" font-weight="bold" fill="black" text-anchor="middle">329</text>
      </g>
      <g transform="rotate(-60)">
        <rect x="-20" y="350" width="40" height="40" rx="8" ry="8"/>
        <text x="0" y="375" font-family="Arial" font-size="15" font-weight="bold" fill="black" text-anchor="middle">331</text>
      </g>
      <g transform="rotate(-70)">
        <rect x="-20" y="350" width="40" height="40" rx="8" ry="8"/>
        <text x="0" y="375" font-family="Arial" font-size="15" font-weight="bold" fill="black" text-anchor="middle">333</text>
      </g>
      <g transform="rotate(-80)">
        <rect x="-20" y="350" width="40" height="40" rx="8" ry="8"/>
        <text x="0" y="375" font-family="Arial" font-size="15" font-weight="bold" fill="black" text-anchor="middle">335</text>
      </g>
      <g transform="rotate(-90)">
        <rect x="-20" y="350" width="40" height="40" rx="8" ry="8"/>
        <text x="0" y="375" font-family="Arial" font-size="15" font-weight="bold" fill="black" text-anchor="middle">337</text>
      </g>
    </g>
  </g>

  <!-- 001-009 (Purple)-->
  <g id="premium" fill="#800080" opacity="0.9">
    <g transform="translate(600,600)">
      <g transform="rotate(40)">
        <rect x="-20" y="300" width="40" height="40" rx="8" ry="8"/>
        <text x="0" y="325" font-family="Arial" font-size="15" font-weight="bold" fill="black" text-anchor="middle">001</text>
      </g>
      <g transform="rotate(30)">
        <rect x="-20" y="300" width="40" height="40" rx="8" ry="8"/>
        <text x="0" y="325" font-family="Arial" font-size="15" font-weight="bold" fill="black" text-anchor="middle">002</text>
       
      </g>
      <g transform="rotate(20)">
        <rect x="-20" y="300" width="40" height="40" rx="8" ry="8"/>
        <text x="0" y="325" font-family="Arial" font-size="15" font-weight="bold" fill="black" text-anchor="middle">003</text>
      </g>
      <g transform="rotate(10)">
        <rect x="-20" y="300" width="40" height="40" rx="8" ry="8"/>
        <text x="0" y="325" font-family="Arial" font-size="15" font-weight="bold" fill="black" text-anchor="middle">004</text>
      </g>
      <g transform="rotate(0)">
        <rect x="-20" y="300" width="40" height="40" rx="8" ry="8"/>
        <text x="0" y="325" font-family="Arial" font-size="15" font-weight="bold" fill="black" text-anchor="middle">005</text>
      </g>
      <g transform="rotate(-10)">
        <rect x="-20" y="300" width="40" height="40" rx="8" ry="8"/>
        <text x="0" y="325" font-family="Arial" font-size="15" font-weight="bold" fill="black" text-anchor="middle">006</text>
      </g>
      <g transform="rotate(-20)">
        <rect x="-20" y="300" width="40" height="40" rx="8" ry="8"/>
        <text x="0" y="325" font-family="Arial" font-size="15" font-weight="bold" fill="black" text-anchor="middle">007</text>
      </g>
      <g transform="rotate(-30)">
        <rect x="-20" y="300" width="40" height="40" rx="8" ry="8"/>
        <text x="0" y="325" font-family="Arial" font-size="15" font-weight="bold" fill="black" text-anchor="middle">008</text>
      </g>
      <g transform="rotate(-40)">
        <rect x="-20" y="300" width="40" height="40" rx="8" ry="8"/>
        <text x="0" y="325" font-family="Arial" font-size="15" font-weight="bold" fill="black" text-anchor="middle">009</text>
      </g>
    </g>
  </g>

  <!-- Gate Zone-->
  <text x="100" y="1000" font-family="Arial" font-size="20" fill="black">3루 내야 출입구</text>
  <text x="1000" y="1000" font-family="Arial" font-size="20" fill="black">1루 내야 출입구</text>
  <text x="600" y="1150" font-family="Arial" font-size="20" fill="black" text-anchor="middle">1-1 Gate</text>
  <text x="100" y="200" font-family="Arial" font-size="20" fill="black">외야 1루 출입구</text>
  <text x="1000" y="200" font-family="Arial" font-size="20" fill="black">외야 3루 출입구</text>

</svg>